# xmcd
#
# Track frame offsets:
#   150
#   15925
#   30812
#   45572
#   61710
#   80462
#   99675
#   112854
#   129060
#   146930
#   166647
#   178377
#
# Disc length: 2633 seconds
#
# Revision: 0
# Processed by: cddbd v1.4PL0 Copyright (c) Steve Scherf et al.
# Submitted via: uFREEDB 1.6.0
#
DISCID=850a470c
DTITLE=Hugo Liscano y Manuel Galue - Melodias Inmortales
DYEAR=1998
DGENRE=Blues
TTITLE0=El Golpe
TTITLE1=Serenata a la luz de la luna
TTITLE2=Guantanamera
TTITLE3=Just the way you are
TTITLE4=Cuando calienta el sol
TTITLE5=Feeling`s
TTITLE6=Blue Moon
TTITLE7=Rain drop keep falling on my head
TTITLE8=Copacabana
TTITLE9=El amor es azul
TTITLE10=Only you
TTITLE11=Historia de amor
EXTD=
EXTT0=
EXTT1=
EXTT2=
EXTT3=
EXTT4=
EXTT5=
EXTT6=
EXTT7=
EXTT8=
EXTT9=
EXTT10=
EXTT11=
PLAYORDER=
